<svg width="32" height="32" viewBox="0 0 32 32" fill="none" xmlns="http://www.w3.org/2000/svg">
<path d="M4.05058 27.9504C6.10298 30 9.40138 30 16.001 30C22.6006 30 25.9004 30 27.95 27.949C30.001 25.9008 30.001 22.5996 30.001 16C30.001 9.4004 30.001 6.1006 27.95 4.0496C25.9018 2 22.6006 2 16.001 2C9.40138 2 6.10158 2 4.05058 4.0496C2.00098 6.102 2.00098 9.4004 2.00098 16C2.00098 22.5996 2.00098 25.9008 4.05058 27.9504Z" stroke="#FFDB27" stroke-width="2.24"/>
<path d="M24.4006 11.0998H18.8006M24.4006 19.4998H18.8006M24.4006 23.6998H18.8006M13.2006 11.0998H10.4006M10.4006 11.0998H7.60059M10.4006 11.0998V8.2998M10.4006 11.0998V13.8998M12.5006 19.4998L10.4006 21.5998M10.4006 21.5998L8.30059 23.6998M10.4006 21.5998L8.30059 19.4998M10.4006 21.5998L12.5006 23.6998" stroke="#FFDB27" stroke-width="2.24" stroke-linecap="round"/>
</svg>
