<svg width="28" height="32" viewBox="0 0 28 32" fill="none" xmlns="http://www.w3.org/2000/svg">
<g opacity="0.5">
<path d="M9.05727 3.98125C7.28841 4.4731 5.53166 5.00825 3.78856 5.58625C3.62927 5.63811 3.48766 5.7342 3.37993 5.86352C3.27221 5.99284 3.20272 6.15017 3.17941 6.3175C2.15056 14.1119 4.5277 19.7987 7.36355 23.545C8.5637 25.1475 9.99543 26.5588 11.6108 27.7319C12.2534 28.1894 12.8217 28.5194 13.2693 28.7313C13.4921 28.8375 13.6735 28.9112 13.8134 28.9525C13.8751 28.9714 13.9377 28.987 14.001 28.9994C14.0636 28.987 14.1256 28.9713 14.1867 28.9525C14.3278 28.91 14.5098 28.8363 14.7327 28.7313C15.1784 28.5194 15.7485 28.1875 16.3911 27.7319C18.0065 26.5588 19.4383 25.1475 20.6384 23.545C23.4743 19.8006 25.8514 14.1119 24.8225 6.3175C24.7992 6.15017 24.7297 5.99284 24.622 5.86352C24.5143 5.7342 24.3727 5.63811 24.2134 5.58625C23.0044 5.18688 20.9634 4.53625 18.9447 3.98312C16.8833 3.41875 14.9871 3.00063 14.001 3.00063C13.0167 3.00063 11.1187 3.41688 9.05727 3.98125ZM8.56327 2.05C10.5783 1.49688 12.7195 1 14.001 1C15.2824 1 17.4237 1.49688 19.4387 2.05C21.5001 2.6125 23.5783 3.27812 24.8003 3.68125C25.3112 3.8516 25.7641 4.164 26.1071 4.58256C26.4501 5.00113 26.6691 5.50889 26.7391 6.0475C27.846 14.4419 25.2775 20.6631 22.1613 24.7787C20.8393 26.5389 19.2637 28.0892 17.4868 29.3781C16.8731 29.8252 16.2219 30.2173 15.5405 30.55C15.0205 30.7975 14.4615 31 14.001 31C13.5404 31 12.9833 30.7975 12.4614 30.55C11.7801 30.2173 11.1289 29.8252 10.5151 29.3781C8.7383 28.0892 7.16269 26.5389 5.8407 24.7787C2.72441 20.6631 0.155987 14.4419 1.26284 6.0475C1.33283 5.50889 1.55189 5.00113 1.89486 4.58256C2.23783 4.164 2.69078 3.8516 3.2017 3.68125C4.97574 3.09439 6.76344 2.55049 8.56327 2.05Z" fill="#8E8E93" stroke="#8E8E93" stroke-width="0.7"/>
<path d="M16.7868 13.1875C16.7871 13.7694 16.6086 14.337 16.276 14.8122C15.9434 15.2873 15.473 15.6467 14.9296 15.8406L15.6446 19.5719C15.6706 19.7076 15.6666 19.8474 15.6328 19.9814C15.599 20.1153 15.5363 20.2401 15.4492 20.3467C15.362 20.4533 15.2526 20.5391 15.1288 20.5981C15.0049 20.657 14.8697 20.6875 14.7328 20.6875H13.2693C13.1326 20.6872 12.9976 20.6565 12.8739 20.5975C12.7503 20.5384 12.6411 20.4525 12.5542 20.346C12.4673 20.2394 12.4047 20.1147 12.371 19.9809C12.3373 19.8471 12.3333 19.7074 12.3593 19.5719L13.0725 15.8406C12.591 15.6688 12.1656 15.3666 11.8428 14.9672C11.5199 14.5677 11.312 14.0864 11.2418 13.5757C11.1716 13.0651 11.2417 12.5447 11.4446 12.0716C11.6475 11.5985 11.9753 11.1908 12.3921 10.893C12.809 10.5952 13.2989 10.4189 13.8083 10.3832C14.3177 10.3475 14.8271 10.4539 15.2807 10.6907C15.7343 10.9276 16.1146 11.2857 16.3803 11.726C16.6459 12.1664 16.7865 12.6719 16.7868 13.1875Z" fill="#8E8E93" stroke="#8E8E93" stroke-width="0.7"/>
</g>
</svg>
