<svg width="32" height="32" viewBox="0 0 32 32" fill="none" xmlns="http://www.w3.org/2000/svg">
<g opacity="0.5">
<path d="M2.00098 9H30.001M5.50098 2H26.501C27.4292 2 28.3195 2.36875 28.9758 3.02513C29.6322 3.6815 30.001 4.57174 30.001 5.5V26.5C30.001 27.4283 29.6322 28.3185 28.9758 28.9749C28.3195 29.6313 27.4292 30 26.501 30H5.50098C4.57272 30 3.68248 29.6313 3.0261 28.9749C2.36973 28.3185 2.00098 27.4283 2.00098 26.5V5.5C2.00098 4.57174 2.36973 3.6815 3.0261 3.02513C3.68248 2.36875 4.57272 2 5.50098 2Z" stroke="#8E8E93" stroke-width="2.24" stroke-linecap="round" stroke-linejoin="round"/>
<path d="M16.001 15.3701C16.3489 15.3701 16.6309 15.6521 16.6309 16C16.6309 16.3479 16.3489 16.6299 16.001 16.6299C15.653 16.6299 15.3711 16.3479 15.3711 16C15.3711 15.6521 15.653 15.3701 16.001 15.3701Z" fill="#8E8E93" stroke="#8E8E93" stroke-width="2.24"/>
<path d="M9.00098 15.3701C9.34892 15.3701 9.63086 15.6521 9.63086 16C9.63086 16.3479 9.34892 16.6299 9.00098 16.6299C8.65304 16.6299 8.37109 16.3479 8.37109 16C8.37109 15.6521 8.65304 15.3701 9.00098 15.3701Z" fill="#8E8E93" stroke="#8E8E93" stroke-width="2.24"/>
<path d="M23.001 15.3701C23.3489 15.3701 23.6309 15.6521 23.6309 16C23.6309 16.3479 23.3489 16.6299 23.001 16.6299C22.653 16.6299 22.3711 16.3479 22.3711 16C22.3711 15.6521 22.653 15.3701 23.001 15.3701Z" fill="#8E8E93" stroke="#8E8E93" stroke-width="2.24"/>
<path d="M16.001 22.3701C16.3489 22.3701 16.6309 22.6521 16.6309 23C16.6309 23.3479 16.3489 23.6299 16.001 23.6299C15.653 23.6299 15.3711 23.3479 15.3711 23C15.3711 22.6521 15.653 22.3701 16.001 22.3701Z" fill="#8E8E93" stroke="#8E8E93" stroke-width="2.24"/>
<path d="M9.00098 22.3701C9.34892 22.3701 9.63086 22.6521 9.63086 23C9.63086 23.3479 9.34892 23.6299 9.00098 23.6299C8.65304 23.6299 8.37109 23.3479 8.37109 23C8.37109 22.6521 8.65304 22.3701 9.00098 22.3701Z" fill="#8E8E93" stroke="#8E8E93" stroke-width="2.24"/>
<path d="M23.001 22.3701C23.3489 22.3701 23.6309 22.6521 23.6309 23C23.6309 23.3479 23.3489 23.6299 23.001 23.6299C22.653 23.6299 22.3711 23.3479 22.3711 23C22.3711 22.6521 22.653 22.3701 23.001 22.3701Z" fill="#8E8E93" stroke="#8E8E93" stroke-width="2.24"/>
</g>
</svg>
