<svg width="32" height="32" viewBox="0 0 32 32" fill="none" xmlns="http://www.w3.org/2000/svg">
<path opacity="0.5" d="M12.0146 6.77121C13.7884 3.5904 14.6746 2 16.0004 2C17.3262 2 18.2124 3.5904 19.9862 6.77121L20.4454 7.59442C20.9494 8.49882 21.2014 8.95102 21.5934 9.24922C21.9854 9.54742 22.4754 9.65802 23.4554 9.87922L24.3458 10.0808C27.7898 10.8606 29.5104 11.2498 29.9206 12.5672C30.3294 13.8832 29.1562 15.2566 26.8084 18.002L26.2008 18.7119C25.5344 19.4917 25.1998 19.8823 25.05 20.3639C24.9002 20.8469 24.9506 21.3677 25.0514 22.4079L25.1438 23.3557C25.498 27.0195 25.6758 28.8507 24.6034 29.6641C23.531 30.4789 21.9182 29.7355 18.6954 28.2515L17.8596 27.8679C16.944 27.4451 16.4862 27.2351 16.0004 27.2351C15.5146 27.2351 15.0568 27.4451 14.1412 27.8679L13.3068 28.2515C10.0826 29.7355 8.46975 30.4775 7.39875 29.6655C6.32494 28.8507 6.50274 27.0195 6.85694 23.3557L6.94934 22.4093C7.05014 21.3677 7.10054 20.8469 6.94934 20.3653C6.80094 19.8823 6.46634 19.4917 5.79994 18.7133L5.19234 18.002C2.84453 15.258 1.67133 13.8846 2.08013 12.5672C2.49033 11.2498 4.21234 10.8592 7.65635 10.0808L8.54675 9.87922C9.52535 9.65802 10.014 9.54742 10.4074 9.24922C10.7994 8.95102 11.0514 8.49882 11.5554 7.59442L12.0146 6.77121Z" stroke="#8E8E93" stroke-width="2.24"/>
</svg>
