<svg width="32" height="32" viewBox="0 0 32 32" fill="none" xmlns="http://www.w3.org/2000/svg">
<g opacity="0.5">
<path d="M12.5306 2.43237C10.1449 3.04318 7.96237 4.2724 6.20336 5.99602C4.44435 7.71964 3.17104 9.87669 2.51187 12.2496C1.85271 14.6224 1.83101 17.1272 2.44898 19.5111C3.06694 21.895 4.3027 24.0738 6.03159 25.8276C7.76048 27.5814 9.92134 28.8483 12.2962 29.5003C14.671 30.1524 17.1758 30.1666 19.5579 29.5414C21.9399 28.9163 24.115 27.674 25.8636 25.9399C27.6123 24.2057 28.8726 22.0411 29.5175 19.6643" stroke="#8E8E93" stroke-width="2.24" stroke-linecap="round" stroke-linejoin="round"/>
<path fill-rule="evenodd" clip-rule="evenodd" d="M30.0016 16.0026C30.0016 12.2889 28.5263 8.72726 25.9004 6.10127C23.2744 3.47527 19.7127 2 15.999 2V16.0026H30.0016Z" stroke="#8E8E93" stroke-width="2.24" stroke-linecap="round" stroke-linejoin="round"/>
</g>
</svg>
