<svg width="54" height="21" viewBox="0 0 54 21" fill="none" xmlns="http://www.w3.org/2000/svg">
<path d="M14.8786 5.72314C12.2805 5.72314 10.4294 7.49951 10.4294 9.93164V9.94824C10.4294 12.2227 12.0397 13.8994 14.3391 13.8994C15.9826 13.8994 17.0285 13.061 17.4684 12.1147H17.6345C17.6345 12.2061 17.6262 12.2974 17.6262 12.3887C17.5349 14.6797 16.7297 16.5391 14.8288 16.5391C13.7746 16.5391 13.0358 15.9912 12.7204 15.1528L12.6955 15.0698H10.5871L10.6037 15.1611C10.9855 16.9956 12.6291 18.2988 14.8288 18.2988C17.842 18.2988 19.6599 15.9082 19.6599 11.874V11.8574C19.6599 7.54102 17.4352 5.72314 14.8786 5.72314ZM14.8703 12.2559C13.509 12.2559 12.5212 11.2598 12.5212 9.87354V9.85693C12.5212 8.52051 13.5754 7.46631 14.8952 7.46631C16.2233 7.46631 17.2609 8.53711 17.2609 9.90674V9.92334C17.2609 11.2764 16.2233 12.2559 14.8703 12.2559ZM23.0204 10.2388C23.7841 10.2388 24.3402 9.65771 24.3402 8.92725C24.3402 8.18848 23.7841 7.61572 23.0204 7.61572C22.265 7.61572 21.7006 8.18848 21.7006 8.92725C21.7006 9.65771 22.265 10.2388 23.0204 10.2388ZM23.0204 16.3979C23.7841 16.3979 24.3402 15.8252 24.3402 15.0864C24.3402 14.3477 23.7841 13.7749 23.0204 13.7749C22.265 13.7749 21.7006 14.3477 21.7006 15.0864C21.7006 15.8252 22.265 16.3979 23.0204 16.3979ZM32.1915 18H34.2418V15.7007H35.8522V13.9326H34.2418V6.02197H31.212C29.5851 8.49561 27.8834 11.2515 26.3312 13.9492V15.7007H32.1915V18ZM28.3233 13.9824V13.8579C29.4855 11.8242 30.8717 9.60791 32.1002 7.73193H32.2247V13.9824H28.3233ZM40.408 18H42.5496V6.02197H40.4163L37.2869 8.22168V10.2388L40.2669 8.13037H40.408V18Z" fill="white"/>
</svg>
