<svg width="31" height="28" viewBox="0 0 31 28" fill="none" xmlns="http://www.w3.org/2000/svg">
<path opacity="0.5" d="M0.0174294 7.31928C0.00338936 6.60558 0.196083 4.94126 2.37285 4.36172L24.233 0C25.835 0 27.1379 1.29852 27.1379 2.89531V6.77695L28.1062 6.77454C29.7025 6.78126 31 8.07592 31 9.66885V25.1047C31 26.7015 29.6971 28 28.0951 28H2.90493C1.30283 28 0 26.7015 0 25.1047L0.0174294 7.31928ZM25.2013 2.89528C25.2013 2.39101 24.8116 1.97653 24.3172 1.93406L2.95386 6.24325C2.94612 6.24711 3.11267 6.78416 3.88828 6.77405H25.2013V2.89528ZM1.9362 25.1052C1.9362 25.6379 2.37 26.0703 2.90451 26.0703H28.0951C28.6296 26.0703 29.0634 25.6379 29.0634 25.1052V9.66888C29.0634 9.13614 28.6296 8.70377 28.0951 8.70377H3.88541C2.93501 8.70377 1.93668 8.38095 1.93668 7.74205V25.1052H1.9362ZM25.1883 15.4629C26.2578 15.4629 27.1249 16.3271 27.1249 17.3931C27.1249 18.459 26.2578 19.3233 25.1883 19.3233C24.1188 19.3233 23.2516 18.459 23.2516 17.3931C23.2516 16.3271 24.1188 15.4629 25.1883 15.4629Z" fill="#8E8E93"/>
</svg>
